<svg width="866" height="683" viewBox="0 0 866 683" fill="none" xmlns="http://www.w3.org/2000/svg">
<path d="M93.3999 37.93L93.3999 37.9298C93.3986 34.4358 94.0857 30.9758 95.4219 27.7474C96.7581 24.519 98.7172 21.5855 101.187 19.1144C103.658 16.6434 106.59 14.6831 109.818 13.3458C113.046 12.0084 116.506 11.32 120 11.32H493C500.055 11.32 506.82 14.1225 511.809 19.111C516.797 24.0994 519.6 30.8652 519.6 37.92V263.61C519.605 270.468 516.887 277.047 512.044 281.902C507.2 286.757 500.627 289.49 493.769 289.5H119.27C112.409 289.5 105.829 286.774 100.977 281.923C96.1255 277.071 93.3999 270.491 93.3999 263.63L93.3999 37.93Z" stroke="#CCCCCC"/>
<path opacity="0.2" d="M118.85 10.82H494.19C501.086 10.82 507.699 13.5593 512.575 18.4352C517.451 23.3112 520.19 29.9244 520.19 36.82V48.39H92.8899V36.78C92.8899 29.8844 95.6292 23.2712 100.505 18.3952C105.381 13.5193 111.994 10.78 118.89 10.78L118.85 10.82Z" fill="black"/>
<rect x="225.125" y="53.125" width="171.75" height="12.8695" rx="3.875" fill="#D9D9D9" stroke="#2F2E41" stroke-width="0.25"/>
<path d="M247.273 56V62H246.551V56H247.273ZM247.102 59.7266L246.801 59.7148C246.803 59.4258 246.846 59.1589 246.93 58.9141C247.013 58.6667 247.13 58.4518 247.281 58.2695C247.432 58.0872 247.612 57.9466 247.82 57.8477C248.031 57.7461 248.264 57.6953 248.52 57.6953C248.728 57.6953 248.915 57.724 249.082 57.7812C249.249 57.8359 249.391 57.9245 249.508 58.0469C249.628 58.1693 249.719 58.3281 249.781 58.5234C249.844 58.7161 249.875 58.9518 249.875 59.2305V62H249.148V59.2227C249.148 59.0013 249.116 58.8242 249.051 58.6914C248.986 58.556 248.891 58.4583 248.766 58.3984C248.641 58.3359 248.487 58.3047 248.305 58.3047C248.125 58.3047 247.961 58.3424 247.812 58.418C247.667 58.4935 247.54 58.5977 247.434 58.7305C247.329 58.8633 247.247 59.0156 247.188 59.1875C247.13 59.3568 247.102 59.5365 247.102 59.7266ZM252.727 57.7734V58.3281H250.441V57.7734H252.727ZM251.215 56.7461H251.938V60.9531C251.938 61.0964 251.96 61.2044 252.004 61.2773C252.048 61.3503 252.105 61.3984 252.176 61.4219C252.246 61.4453 252.322 61.457 252.402 61.457C252.462 61.457 252.525 61.4518 252.59 61.4414C252.658 61.4284 252.708 61.418 252.742 61.4102L252.746 62C252.689 62.0182 252.613 62.0352 252.52 62.0508C252.428 62.069 252.318 62.0781 252.188 62.0781C252.01 62.0781 251.848 62.043 251.699 61.9727C251.551 61.9023 251.432 61.7852 251.344 61.6211C251.258 61.4544 251.215 61.2305 251.215 60.9492V56.7461ZM255.344 57.7734V58.3281H253.059V57.7734H255.344ZM253.832 56.7461H254.555V60.9531C254.555 61.0964 254.577 61.2044 254.621 61.2773C254.665 61.3503 254.723 61.3984 254.793 61.4219C254.863 61.4453 254.939 61.457 255.02 61.457C255.079 61.457 255.142 61.4518 255.207 61.4414C255.275 61.4284 255.326 61.418 255.359 61.4102L255.363 62C255.306 62.0182 255.23 62.0352 255.137 62.0508C255.046 62.069 254.935 62.0781 254.805 62.0781C254.628 62.0781 254.465 62.043 254.316 61.9727C254.168 61.9023 254.049 61.7852 253.961 61.6211C253.875 61.4544 253.832 61.2305 253.832 60.9492V56.7461ZM256.914 58.5859V63.625H256.188V57.7734H256.852L256.914 58.5859ZM259.762 59.8516V59.9336C259.762 60.2409 259.725 60.526 259.652 60.7891C259.579 61.0495 259.473 61.276 259.332 61.4688C259.194 61.6615 259.023 61.8112 258.82 61.918C258.617 62.0247 258.384 62.0781 258.121 62.0781C257.853 62.0781 257.616 62.0339 257.41 61.9453C257.204 61.8568 257.03 61.7279 256.887 61.5586C256.743 61.3893 256.629 61.1862 256.543 60.9492C256.46 60.7122 256.402 60.4453 256.371 60.1484V59.7109C256.402 59.3984 256.461 59.1185 256.547 58.8711C256.633 58.6237 256.746 58.4128 256.887 58.2383C257.03 58.0612 257.203 57.9271 257.406 57.8359C257.609 57.7422 257.844 57.6953 258.109 57.6953C258.375 57.6953 258.611 57.7474 258.816 57.8516C259.022 57.9531 259.195 58.099 259.336 58.2891C259.477 58.4792 259.582 58.707 259.652 58.9727C259.725 59.2357 259.762 59.5286 259.762 59.8516ZM259.035 59.9336V59.8516C259.035 59.6406 259.013 59.4427 258.969 59.2578C258.924 59.0703 258.855 58.9062 258.762 58.7656C258.671 58.6224 258.553 58.5104 258.41 58.4297C258.267 58.3464 258.096 58.3047 257.898 58.3047C257.716 58.3047 257.557 58.3359 257.422 58.3984C257.289 58.4609 257.176 58.5456 257.082 58.6523C256.988 58.7565 256.911 58.8763 256.852 59.0117C256.794 59.1445 256.751 59.2826 256.723 59.4258V60.4375C256.775 60.6198 256.848 60.7917 256.941 60.9531C257.035 61.112 257.16 61.2409 257.316 61.3398C257.473 61.4362 257.669 61.4844 257.906 61.4844C258.102 61.4844 258.27 61.444 258.41 61.3633C258.553 61.2799 258.671 61.1667 258.762 61.0234C258.855 60.8802 258.924 60.7161 258.969 60.5312C259.013 60.3438 259.035 60.1445 259.035 59.9336ZM260.652 61.6172C260.652 61.4948 260.69 61.3919 260.766 61.3086C260.844 61.2227 260.956 61.1797 261.102 61.1797C261.247 61.1797 261.358 61.2227 261.434 61.3086C261.512 61.3919 261.551 61.4948 261.551 61.6172C261.551 61.737 261.512 61.8385 261.434 61.9219C261.358 62.0052 261.247 62.0469 261.102 62.0469C260.956 62.0469 260.844 62.0052 260.766 61.9219C260.69 61.8385 260.652 61.737 260.652 61.6172ZM260.656 58.168C260.656 58.0456 260.694 57.9427 260.77 57.8594C260.848 57.7734 260.96 57.7305 261.105 57.7305C261.251 57.7305 261.362 57.7734 261.438 57.8594C261.516 57.9427 261.555 58.0456 261.555 58.168C261.555 58.2878 261.516 58.3893 261.438 58.4727C261.362 58.556 261.251 58.5977 261.105 58.5977C260.96 58.5977 260.848 58.556 260.77 58.4727C260.694 58.3893 260.656 58.2878 260.656 58.168ZM265.137 56.3125L262.766 62.4883H262.145L264.52 56.3125H265.137ZM267.566 56.3125L265.195 62.4883H264.574L266.949 56.3125H267.566ZM269.543 61.5625L270.719 57.7734H271.492L269.797 62.6523C269.758 62.7565 269.706 62.8685 269.641 62.9883C269.578 63.1107 269.497 63.2266 269.398 63.3359C269.299 63.4453 269.18 63.5339 269.039 63.6016C268.901 63.6719 268.736 63.707 268.543 63.707C268.486 63.707 268.413 63.6992 268.324 63.6836C268.236 63.668 268.173 63.6549 268.137 63.6445L268.133 63.0586C268.154 63.0612 268.186 63.0638 268.23 63.0664C268.277 63.0716 268.31 63.0742 268.328 63.0742C268.492 63.0742 268.632 63.0521 268.746 63.0078C268.861 62.9661 268.957 62.8945 269.035 62.793C269.116 62.694 269.185 62.5573 269.242 62.3828L269.543 61.5625ZM268.68 57.7734L269.777 61.0547L269.965 61.8164L269.445 62.082L267.891 57.7734H268.68ZM271.891 59.9336V59.8438C271.891 59.5391 271.935 59.2565 272.023 58.9961C272.112 58.7331 272.24 58.5052 272.406 58.3125C272.573 58.1172 272.775 57.9661 273.012 57.8594C273.249 57.75 273.514 57.6953 273.809 57.6953C274.105 57.6953 274.372 57.75 274.609 57.8594C274.849 57.9661 275.052 58.1172 275.219 58.3125C275.388 58.5052 275.517 58.7331 275.605 58.9961C275.694 59.2565 275.738 59.5391 275.738 59.8438V59.9336C275.738 60.2383 275.694 60.5208 275.605 60.7812C275.517 61.0417 275.388 61.2695 275.219 61.4648C275.052 61.6576 274.85 61.8086 274.613 61.918C274.379 62.0247 274.113 62.0781 273.816 62.0781C273.52 62.0781 273.253 62.0247 273.016 61.918C272.779 61.8086 272.576 61.6576 272.406 61.4648C272.24 61.2695 272.112 61.0417 272.023 60.7812C271.935 60.5208 271.891 60.2383 271.891 59.9336ZM272.613 59.8438V59.9336C272.613 60.1445 272.638 60.3438 272.688 60.5312C272.737 60.7161 272.811 60.8802 272.91 61.0234C273.012 61.1667 273.138 61.2799 273.289 61.3633C273.44 61.444 273.616 61.4844 273.816 61.4844C274.014 61.4844 274.188 61.444 274.336 61.3633C274.487 61.2799 274.612 61.1667 274.711 61.0234C274.81 60.8802 274.884 60.7161 274.934 60.5312C274.986 60.3438 275.012 60.1445 275.012 59.9336V59.8438C275.012 59.6354 274.986 59.4388 274.934 59.2539C274.884 59.0664 274.809 58.901 274.707 58.7578C274.608 58.612 274.483 58.4974 274.332 58.4141C274.184 58.3307 274.009 58.2891 273.809 58.2891C273.611 58.2891 273.436 58.3307 273.285 58.4141C273.137 58.4974 273.012 58.612 272.91 58.7578C272.811 58.901 272.737 59.0664 272.688 59.2539C272.638 59.4388 272.613 59.6354 272.613 59.8438ZM279.23 61.0234V57.7734H279.957V62H279.266L279.23 61.0234ZM279.367 60.1328L279.668 60.125C279.668 60.4062 279.638 60.6667 279.578 60.9062C279.521 61.1432 279.427 61.349 279.297 61.5234C279.167 61.6979 278.996 61.8346 278.785 61.9336C278.574 62.0299 278.318 62.0781 278.016 62.0781C277.81 62.0781 277.621 62.0482 277.449 61.9883C277.28 61.9284 277.134 61.8359 277.012 61.7109C276.889 61.5859 276.794 61.4232 276.727 61.2227C276.661 61.0221 276.629 60.7812 276.629 60.5V57.7734H277.352V60.5078C277.352 60.6979 277.372 60.8555 277.414 60.9805C277.458 61.1029 277.517 61.2005 277.59 61.2734C277.665 61.3438 277.749 61.3932 277.84 61.4219C277.934 61.4505 278.03 61.4648 278.129 61.4648C278.436 61.4648 278.68 61.4062 278.859 61.2891C279.039 61.1693 279.168 61.0091 279.246 60.8086C279.327 60.6055 279.367 60.3802 279.367 60.1328ZM281.781 58.4375V62H281.059V57.7734H281.762L281.781 58.4375ZM283.102 57.75L283.098 58.4219C283.038 58.4089 282.98 58.401 282.926 58.3984C282.874 58.3932 282.814 58.3906 282.746 58.3906C282.579 58.3906 282.432 58.4167 282.305 58.4688C282.177 58.5208 282.069 58.5938 281.98 58.6875C281.892 58.7812 281.822 58.8932 281.77 59.0234C281.72 59.151 281.688 59.2917 281.672 59.4453L281.469 59.5625C281.469 59.3073 281.493 59.0677 281.543 58.8438C281.595 58.6198 281.674 58.4219 281.781 58.25C281.888 58.0755 282.023 57.9401 282.188 57.8438C282.354 57.7448 282.552 57.6953 282.781 57.6953C282.833 57.6953 282.893 57.7018 282.961 57.7148C283.029 57.7253 283.076 57.737 283.102 57.75ZM286.355 61.1797V56H287.082V62H286.418L286.355 61.1797ZM283.512 59.9336V59.8516C283.512 59.5286 283.551 59.2357 283.629 58.9727C283.71 58.707 283.823 58.4792 283.969 58.2891C284.117 58.099 284.293 57.9531 284.496 57.8516C284.702 57.7474 284.931 57.6953 285.184 57.6953C285.449 57.6953 285.681 57.7422 285.879 57.8359C286.079 57.9271 286.249 58.0612 286.387 58.2383C286.527 58.4128 286.638 58.6237 286.719 58.8711C286.799 59.1185 286.855 59.3984 286.887 59.7109V60.0703C286.858 60.3802 286.802 60.6589 286.719 60.9062C286.638 61.1536 286.527 61.3646 286.387 61.5391C286.249 61.7135 286.079 61.8477 285.879 61.9414C285.678 62.0326 285.444 62.0781 285.176 62.0781C284.928 62.0781 284.702 62.0247 284.496 61.918C284.293 61.8112 284.117 61.6615 283.969 61.4688C283.823 61.276 283.71 61.0495 283.629 60.7891C283.551 60.526 283.512 60.2409 283.512 59.9336ZM284.238 59.8516V59.9336C284.238 60.1445 284.259 60.3424 284.301 60.5273C284.345 60.7122 284.413 60.875 284.504 61.0156C284.595 61.1562 284.711 61.2669 284.852 61.3477C284.992 61.4258 285.16 61.4648 285.355 61.4648C285.595 61.4648 285.792 61.4141 285.945 61.3125C286.102 61.2109 286.227 61.0768 286.32 60.9102C286.414 60.7435 286.487 60.5625 286.539 60.3672V59.4258C286.508 59.2826 286.462 59.1445 286.402 59.0117C286.345 58.8763 286.27 58.7565 286.176 58.6523C286.085 58.5456 285.971 58.4609 285.836 58.3984C285.703 58.3359 285.546 58.3047 285.363 58.3047C285.165 58.3047 284.995 58.3464 284.852 58.4297C284.711 58.5104 284.595 58.6224 284.504 58.7656C284.413 58.9062 284.345 59.0703 284.301 59.2578C284.259 59.4427 284.238 59.6406 284.238 59.8516ZM288.016 59.9336V59.8438C288.016 59.5391 288.06 59.2565 288.148 58.9961C288.237 58.7331 288.365 58.5052 288.531 58.3125C288.698 58.1172 288.9 57.9661 289.137 57.8594C289.374 57.75 289.639 57.6953 289.934 57.6953C290.23 57.6953 290.497 57.75 290.734 57.8594C290.974 57.9661 291.177 58.1172 291.344 58.3125C291.513 58.5052 291.642 58.7331 291.73 58.9961C291.819 59.2565 291.863 59.5391 291.863 59.8438V59.9336C291.863 60.2383 291.819 60.5208 291.73 60.7812C291.642 61.0417 291.513 61.2695 291.344 61.4648C291.177 61.6576 290.975 61.8086 290.738 61.918C290.504 62.0247 290.238 62.0781 289.941 62.0781C289.645 62.0781 289.378 62.0247 289.141 61.918C288.904 61.8086 288.701 61.6576 288.531 61.4648C288.365 61.2695 288.237 61.0417 288.148 60.7812C288.06 60.5208 288.016 60.2383 288.016 59.9336ZM288.738 59.8438V59.9336C288.738 60.1445 288.763 60.3438 288.812 60.5312C288.862 60.7161 288.936 60.8802 289.035 61.0234C289.137 61.1667 289.263 61.2799 289.414 61.3633C289.565 61.444 289.741 61.4844 289.941 61.4844C290.139 61.4844 290.312 61.444 290.461 61.3633C290.612 61.2799 290.737 61.1667 290.836 61.0234C290.935 60.8802 291.009 60.7161 291.059 60.5312C291.111 60.3438 291.137 60.1445 291.137 59.9336V59.8438C291.137 59.6354 291.111 59.4388 291.059 59.2539C291.009 59.0664 290.934 58.901 290.832 58.7578C290.733 58.612 290.608 58.4974 290.457 58.4141C290.309 58.3307 290.134 58.2891 289.934 58.2891C289.736 58.2891 289.561 58.3307 289.41 58.4141C289.262 58.4974 289.137 58.612 289.035 58.7578C288.936 58.901 288.862 59.0664 288.812 59.2539C288.763 59.4388 288.738 59.6354 288.738 59.8438ZM293.488 58.6133V62H292.762V57.7734H293.449L293.488 58.6133ZM293.34 59.7266L293.004 59.7148C293.007 59.4258 293.044 59.1589 293.117 58.9141C293.19 58.6667 293.298 58.4518 293.441 58.2695C293.585 58.0872 293.763 57.9466 293.977 57.8477C294.19 57.7461 294.438 57.6953 294.719 57.6953C294.917 57.6953 295.099 57.724 295.266 57.7812C295.432 57.8359 295.577 57.9232 295.699 58.043C295.822 58.1628 295.917 58.3164 295.984 58.5039C296.052 58.6914 296.086 58.918 296.086 59.1836V62H295.363V59.2188C295.363 58.9974 295.326 58.8203 295.25 58.6875C295.177 58.5547 295.073 58.4583 294.938 58.3984C294.802 58.3359 294.643 58.3047 294.461 58.3047C294.247 58.3047 294.069 58.3424 293.926 58.418C293.783 58.4935 293.668 58.5977 293.582 58.7305C293.496 58.8633 293.434 59.0156 293.395 59.1875C293.358 59.3568 293.34 59.5365 293.34 59.7266ZM296.078 59.3281L295.594 59.4766C295.596 59.2448 295.634 59.0221 295.707 58.8086C295.783 58.5951 295.891 58.4049 296.031 58.2383C296.174 58.0716 296.35 57.9401 296.559 57.8438C296.767 57.7448 297.005 57.6953 297.273 57.6953C297.5 57.6953 297.701 57.7253 297.875 57.7852C298.052 57.8451 298.201 57.9375 298.32 58.0625C298.443 58.1849 298.535 58.3424 298.598 58.5352C298.66 58.7279 298.691 58.957 298.691 59.2227V62H297.965V59.2148C297.965 58.9779 297.927 58.7943 297.852 58.6641C297.779 58.5312 297.674 58.4388 297.539 58.3867C297.406 58.332 297.247 58.3047 297.062 58.3047C296.904 58.3047 296.763 58.332 296.641 58.3867C296.518 58.4414 296.415 58.5169 296.332 58.6133C296.249 58.707 296.185 58.8151 296.141 58.9375C296.099 59.0599 296.078 59.1901 296.078 59.3281ZM302.277 61.2773V59.1016C302.277 58.9349 302.243 58.7904 302.176 58.668C302.111 58.543 302.012 58.4466 301.879 58.3789C301.746 58.3112 301.582 58.2773 301.387 58.2773C301.204 58.2773 301.044 58.3086 300.906 58.3711C300.771 58.4336 300.664 58.5156 300.586 58.6172C300.51 58.7188 300.473 58.8281 300.473 58.9453H299.75C299.75 58.7943 299.789 58.6445 299.867 58.4961C299.945 58.3477 300.057 58.2135 300.203 58.0938C300.352 57.9714 300.529 57.875 300.734 57.8047C300.943 57.7318 301.174 57.6953 301.43 57.6953C301.737 57.6953 302.008 57.7474 302.242 57.8516C302.479 57.9557 302.664 58.1133 302.797 58.3242C302.932 58.5326 303 58.7943 303 59.1094V61.0781C303 61.2188 303.012 61.3685 303.035 61.5273C303.061 61.6862 303.099 61.8229 303.148 61.9375V62H302.395C302.358 61.9167 302.329 61.806 302.309 61.668C302.288 61.5273 302.277 61.3971 302.277 61.2773ZM302.402 59.4375L302.41 59.9453H301.68C301.474 59.9453 301.29 59.9622 301.129 59.9961C300.967 60.0273 300.832 60.0755 300.723 60.1406C300.613 60.2057 300.53 60.2878 300.473 60.3867C300.415 60.4831 300.387 60.5964 300.387 60.7266C300.387 60.8594 300.417 60.9805 300.477 61.0898C300.536 61.1992 300.626 61.2865 300.746 61.3516C300.868 61.4141 301.018 61.4453 301.195 61.4453C301.417 61.4453 301.612 61.3984 301.781 61.3047C301.951 61.2109 302.085 61.0964 302.184 60.9609C302.285 60.8255 302.34 60.694 302.348 60.5664L302.656 60.9141C302.638 61.0234 302.589 61.1445 302.508 61.2773C302.427 61.4102 302.319 61.5378 302.184 61.6602C302.051 61.7799 301.892 61.8802 301.707 61.9609C301.525 62.0391 301.319 62.0781 301.09 62.0781C300.803 62.0781 300.552 62.0221 300.336 61.9102C300.122 61.7982 299.956 61.6484 299.836 61.4609C299.719 61.2708 299.66 61.0586 299.66 60.8242C299.66 60.5977 299.704 60.3984 299.793 60.2266C299.882 60.0521 300.009 59.9076 300.176 59.793C300.342 59.6758 300.543 59.5872 300.777 59.5273C301.012 59.4674 301.273 59.4375 301.562 59.4375H302.402ZM304.922 57.7734V62H304.195V57.7734H304.922ZM304.141 56.6523C304.141 56.5352 304.176 56.4362 304.246 56.3555C304.319 56.2747 304.426 56.2344 304.566 56.2344C304.704 56.2344 304.81 56.2747 304.883 56.3555C304.958 56.4362 304.996 56.5352 304.996 56.6523C304.996 56.7643 304.958 56.8607 304.883 56.9414C304.81 57.0195 304.704 57.0586 304.566 57.0586C304.426 57.0586 304.319 57.0195 304.246 56.9414C304.176 56.8607 304.141 56.7643 304.141 56.6523ZM306.805 58.6758V62H306.082V57.7734H306.766L306.805 58.6758ZM306.633 59.7266L306.332 59.7148C306.335 59.4258 306.378 59.1589 306.461 58.9141C306.544 58.6667 306.661 58.4518 306.812 58.2695C306.964 58.0872 307.143 57.9466 307.352 57.8477C307.562 57.7461 307.796 57.6953 308.051 57.6953C308.259 57.6953 308.447 57.724 308.613 57.7812C308.78 57.8359 308.922 57.9245 309.039 58.0469C309.159 58.1693 309.25 58.3281 309.312 58.5234C309.375 58.7161 309.406 58.9518 309.406 59.2305V62H308.68V59.2227C308.68 59.0013 308.647 58.8242 308.582 58.6914C308.517 58.556 308.422 58.4583 308.297 58.3984C308.172 58.3359 308.018 58.3047 307.836 58.3047C307.656 58.3047 307.492 58.3424 307.344 58.418C307.198 58.4935 307.072 58.5977 306.965 58.7305C306.861 58.8633 306.779 59.0156 306.719 59.1875C306.661 59.3568 306.633 59.5365 306.633 59.7266ZM310.516 61.6172C310.516 61.4948 310.553 61.3919 310.629 61.3086C310.707 61.2227 310.819 61.1797 310.965 61.1797C311.111 61.1797 311.221 61.2227 311.297 61.3086C311.375 61.3919 311.414 61.4948 311.414 61.6172C311.414 61.737 311.375 61.8385 311.297 61.9219C311.221 62.0052 311.111 62.0469 310.965 62.0469C310.819 62.0469 310.707 62.0052 310.629 61.9219C310.553 61.8385 310.516 61.737 310.516 61.6172ZM314.305 61.4844C314.477 61.4844 314.635 61.4492 314.781 61.3789C314.927 61.3086 315.047 61.2122 315.141 61.0898C315.234 60.9648 315.288 60.8229 315.301 60.6641H315.988C315.975 60.9141 315.891 61.1471 315.734 61.3633C315.581 61.5768 315.379 61.75 315.129 61.8828C314.879 62.013 314.604 62.0781 314.305 62.0781C313.987 62.0781 313.71 62.0221 313.473 61.9102C313.238 61.7982 313.043 61.6445 312.887 61.4492C312.733 61.2539 312.617 61.0299 312.539 60.7773C312.464 60.5221 312.426 60.2526 312.426 59.9688V59.8047C312.426 59.5208 312.464 59.2526 312.539 59C312.617 58.7448 312.733 58.5195 312.887 58.3242C313.043 58.1289 313.238 57.9753 313.473 57.8633C313.71 57.7513 313.987 57.6953 314.305 57.6953C314.635 57.6953 314.924 57.763 315.172 57.8984C315.419 58.0312 315.613 58.2135 315.754 58.4453C315.897 58.6745 315.975 58.9349 315.988 59.2266H315.301C315.288 59.0521 315.238 58.8945 315.152 58.7539C315.069 58.6133 314.954 58.5013 314.809 58.418C314.665 58.332 314.497 58.2891 314.305 58.2891C314.083 58.2891 313.897 58.3333 313.746 58.4219C313.598 58.5078 313.479 58.625 313.391 58.7734C313.305 58.9193 313.242 59.082 313.203 59.2617C313.167 59.4388 313.148 59.6198 313.148 59.8047V59.9688C313.148 60.1536 313.167 60.3359 313.203 60.5156C313.24 60.6953 313.301 60.8581 313.387 61.0039C313.475 61.1497 313.594 61.2669 313.742 61.3555C313.893 61.4414 314.081 61.4844 314.305 61.4844ZM316.609 59.9336V59.8438C316.609 59.5391 316.654 59.2565 316.742 58.9961C316.831 58.7331 316.958 58.5052 317.125 58.3125C317.292 58.1172 317.493 57.9661 317.73 57.8594C317.967 57.75 318.233 57.6953 318.527 57.6953C318.824 57.6953 319.091 57.75 319.328 57.8594C319.568 57.9661 319.771 58.1172 319.938 58.3125C320.107 58.5052 320.236 58.7331 320.324 58.9961C320.413 59.2565 320.457 59.5391 320.457 59.8438V59.9336C320.457 60.2383 320.413 60.5208 320.324 60.7812C320.236 61.0417 320.107 61.2695 319.938 61.4648C319.771 61.6576 319.569 61.8086 319.332 61.918C319.098 62.0247 318.832 62.0781 318.535 62.0781C318.238 62.0781 317.971 62.0247 317.734 61.918C317.497 61.8086 317.294 61.6576 317.125 61.4648C316.958 61.2695 316.831 61.0417 316.742 60.7812C316.654 60.5208 316.609 60.2383 316.609 59.9336ZM317.332 59.8438V59.9336C317.332 60.1445 317.357 60.3438 317.406 60.5312C317.456 60.7161 317.53 60.8802 317.629 61.0234C317.73 61.1667 317.857 61.2799 318.008 61.3633C318.159 61.444 318.335 61.4844 318.535 61.4844C318.733 61.4844 318.906 61.444 319.055 61.3633C319.206 61.2799 319.331 61.1667 319.43 61.0234C319.529 60.8802 319.603 60.7161 319.652 60.5312C319.704 60.3438 319.73 60.1445 319.73 59.9336V59.8438C319.73 59.6354 319.704 59.4388 319.652 59.2539C319.603 59.0664 319.527 58.901 319.426 58.7578C319.327 58.612 319.202 58.4974 319.051 58.4141C318.902 58.3307 318.728 58.2891 318.527 58.2891C318.329 58.2891 318.155 58.3307 318.004 58.4141C317.855 58.4974 317.73 58.612 317.629 58.7578C317.53 58.901 317.456 59.0664 317.406 59.2539C317.357 59.4388 317.332 59.6354 317.332 59.8438ZM322.082 58.6133V62H321.355V57.7734H322.043L322.082 58.6133ZM321.934 59.7266L321.598 59.7148C321.6 59.4258 321.638 59.1589 321.711 58.9141C321.784 58.6667 321.892 58.4518 322.035 58.2695C322.178 58.0872 322.357 57.9466 322.57 57.8477C322.784 57.7461 323.031 57.6953 323.312 57.6953C323.51 57.6953 323.693 57.724 323.859 57.7812C324.026 57.8359 324.171 57.9232 324.293 58.043C324.415 58.1628 324.51 58.3164 324.578 58.5039C324.646 58.6914 324.68 58.918 324.68 59.1836V62H323.957V59.2188C323.957 58.9974 323.919 58.8203 323.844 58.6875C323.771 58.5547 323.667 58.4583 323.531 58.3984C323.396 58.3359 323.237 58.3047 323.055 58.3047C322.841 58.3047 322.663 58.3424 322.52 58.418C322.376 58.4935 322.262 58.5977 322.176 58.7305C322.09 58.8633 322.027 59.0156 321.988 59.1875C321.952 59.3568 321.934 59.5365 321.934 59.7266ZM324.672 59.3281L324.188 59.4766C324.19 59.2448 324.228 59.0221 324.301 58.8086C324.376 58.5951 324.484 58.4049 324.625 58.2383C324.768 58.0716 324.944 57.9401 325.152 57.8438C325.361 57.7448 325.599 57.6953 325.867 57.6953C326.094 57.6953 326.294 57.7253 326.469 57.7852C326.646 57.8451 326.794 57.9375 326.914 58.0625C327.036 58.1849 327.129 58.3424 327.191 58.5352C327.254 58.7279 327.285 58.957 327.285 59.2227V62H326.559V59.2148C326.559 58.9779 326.521 58.7943 326.445 58.6641C326.372 58.5312 326.268 58.4388 326.133 58.3867C326 58.332 325.841 58.3047 325.656 58.3047C325.497 58.3047 325.357 58.332 325.234 58.3867C325.112 58.4414 325.009 58.5169 324.926 58.6133C324.842 58.707 324.779 58.8151 324.734 58.9375C324.693 59.0599 324.672 59.1901 324.672 59.3281ZM328.391 61.6172C328.391 61.4948 328.428 61.3919 328.504 61.3086C328.582 61.2227 328.694 61.1797 328.84 61.1797C328.986 61.1797 329.096 61.2227 329.172 61.3086C329.25 61.3919 329.289 61.4948 329.289 61.6172C329.289 61.737 329.25 61.8385 329.172 61.9219C329.096 62.0052 328.986 62.0469 328.84 62.0469C328.694 62.0469 328.582 62.0052 328.504 61.9219C328.428 61.8385 328.391 61.737 328.391 61.6172ZM330.484 56H331.211V61.1797L331.148 62H330.484V56ZM334.066 59.8516V59.9336C334.066 60.2409 334.03 60.526 333.957 60.7891C333.884 61.0495 333.777 61.276 333.637 61.4688C333.496 61.6615 333.324 61.8112 333.121 61.918C332.918 62.0247 332.685 62.0781 332.422 62.0781C332.154 62.0781 331.918 62.0326 331.715 61.9414C331.514 61.8477 331.345 61.7135 331.207 61.5391C331.069 61.3646 330.958 61.1536 330.875 60.9062C330.794 60.6589 330.738 60.3802 330.707 60.0703V59.7109C330.738 59.3984 330.794 59.1185 330.875 58.8711C330.958 58.6237 331.069 58.4128 331.207 58.2383C331.345 58.0612 331.514 57.9271 331.715 57.8359C331.915 57.7422 332.148 57.6953 332.414 57.6953C332.68 57.6953 332.915 57.7474 333.121 57.8516C333.327 57.9531 333.499 58.099 333.637 58.2891C333.777 58.4792 333.884 58.707 333.957 58.9727C334.03 59.2357 334.066 59.5286 334.066 59.8516ZM333.34 59.9336V59.8516C333.34 59.6406 333.32 59.4427 333.281 59.2578C333.242 59.0703 333.18 58.9062 333.094 58.7656C333.008 58.6224 332.895 58.5104 332.754 58.4297C332.613 58.3464 332.44 58.3047 332.234 58.3047C332.052 58.3047 331.893 58.3359 331.758 58.3984C331.625 58.4609 331.512 58.5456 331.418 58.6523C331.324 58.7565 331.247 58.8763 331.188 59.0117C331.13 59.1445 331.087 59.2826 331.059 59.4258V60.3672C331.1 60.5495 331.168 60.7253 331.262 60.8945C331.358 61.0612 331.486 61.1979 331.645 61.3047C331.806 61.4115 332.005 61.4648 332.242 61.4648C332.438 61.4648 332.604 61.4258 332.742 61.3477C332.883 61.2669 332.996 61.1562 333.082 61.0156C333.171 60.875 333.236 60.7122 333.277 60.5273C333.319 60.3424 333.34 60.1445 333.34 59.9336ZM335.703 58.4375V62H334.98V57.7734H335.684L335.703 58.4375ZM337.023 57.75L337.02 58.4219C336.96 58.4089 336.902 58.401 336.848 58.3984C336.796 58.3932 336.736 58.3906 336.668 58.3906C336.501 58.3906 336.354 58.4167 336.227 58.4688C336.099 58.5208 335.991 58.5938 335.902 58.6875C335.814 58.7812 335.743 58.8932 335.691 59.0234C335.642 59.151 335.609 59.2917 335.594 59.4453L335.391 59.5625C335.391 59.3073 335.415 59.0677 335.465 58.8438C335.517 58.6198 335.596 58.4219 335.703 58.25C335.81 58.0755 335.945 57.9401 336.109 57.8438C336.276 57.7448 336.474 57.6953 336.703 57.6953C336.755 57.6953 336.815 57.7018 336.883 57.7148C336.951 57.7253 336.997 57.737 337.023 57.75Z" fill="#2F2E41"/>
<path d="M237.105 58.6652H236.834V57.9943C236.834 57.2135 236.064 56.578 235.118 56.578C234.171 56.578 233.401 57.2135 233.401 57.9943V58.6652H233.13C232.831 58.6652 232.588 58.8655 232.588 59.1124V60.9015C232.588 61.1484 232.831 61.3487 233.13 61.3487H237.105C237.404 61.3487 237.647 61.1484 237.647 60.9015V59.1124C237.647 58.8655 237.404 58.6652 237.105 58.6652ZM235.931 58.6652H234.305V57.9943C234.305 57.6244 234.669 57.3234 235.118 57.3234C235.566 57.3234 235.931 57.6244 235.931 57.9943V58.6652Z" fill="#2F2E41"/>
<g clip-path="url(#clip0_410_74)">
<path d="M382.836 56.9905L382.263 58.0871L380.98 58.2635C380.749 58.295 380.657 58.5625 380.824 58.7157L381.752 59.5688L381.533 60.7739C381.493 60.9917 381.737 61.1549 381.94 61.053L383.088 60.484L384.236 61.053C384.44 61.1541 384.683 60.9917 384.644 60.7739L384.424 59.5688L385.352 58.7157C385.519 58.5625 385.427 58.295 385.197 58.2635L383.914 58.0871L383.34 56.9905C383.238 56.795 382.94 56.7925 382.836 56.9905Z" fill="black"/>
</g>
<rect x="122" y="94" width="107" height="76.0456" rx="4" fill="#D9D9D9"/>
<path d="M148.362 130.56L167.164 153.593H129.561L148.362 130.56Z" fill="#2F2E41"/>
<path d="M173.174 123.98L198.69 153.593H147.658L173.174 123.98Z" fill="#2F2E41"/>
<ellipse cx="208.841" cy="114.474" rx="12.4058" ry="10.2369" fill="#2F2E41"/>
<rect x="363" y="192" width="107" height="76.0456" rx="4" fill="#D9D9D9"/>
<path d="M389.362 228.56L408.164 251.593H370.561L389.362 228.56Z" fill="#2F2E41"/>
<path d="M414.174 221.98L439.69 251.593H388.658L414.174 221.98Z" fill="#2F2E41"/>
<ellipse cx="449.841" cy="212.474" rx="12.4058" ry="10.2369" fill="#2F2E41"/>
<path d="M474.32 448.47C474.32 448.47 444.32 453.76 432.47 453.17C432.47 453.17 404.59 458.17 402.47 484.91C402.47 484.91 391.19 542.45 389.47 570.33C389.47 570.33 386.2 575.33 386.47 579.23C386.47 579.23 424.73 585.16 434.22 593.47C434.22 593.47 440.75 521.09 441.05 497.07C441.05 497.07 462.7 506.76 484.95 507.55C485.696 506.224 486.768 505.11 488.064 504.313C489.361 503.517 490.84 503.065 492.36 503L537.57 503.18C537.57 503.18 501.93 482.63 474.32 448.47Z" fill="black"/>
<path opacity="0.2" d="M474.32 448.47C474.32 448.47 444.32 453.76 432.47 453.17C432.47 453.17 404.59 458.17 402.47 484.91C402.47 484.91 391.19 542.45 389.47 570.33C389.47 570.33 386.2 575.33 386.47 579.23C386.47 579.23 424.73 585.16 434.22 593.47C434.22 593.47 440.75 521.09 441.05 497.07C441.05 497.07 462.7 506.76 484.95 507.55C485.696 506.224 486.768 505.11 488.064 504.313C489.361 503.517 490.84 503.065 492.36 503L536.7 503.18C536.7 503.18 501.93 482.63 474.32 448.47Z" fill="black" fill-opacity="0.5"/>
<path d="M509.3 387.32L534.66 362.94C537.621 360.081 540.23 356.878 542.43 353.4C546.71 346.68 556.37 334.4 572.18 330.03L573.28 326.09C573.28 326.09 591.78 335.25 598.15 305.82C598.15 305.82 599.08 312.27 602.84 315.82C602.84 315.82 613.71 310.82 619.93 322.35C619.93 322.35 663.54 327.1 666.5 352.01C666.5 352.01 671.5 430.01 654.64 437.14C654.64 437.14 645.15 440.14 639.81 439.81C639.81 439.81 631.21 470.96 605.1 494.98C605.1 494.98 553.49 478.98 533.92 451.68L534.51 435.36C534.51 435.36 547.26 415.5 547 399.19C547 399.19 526.65 415.07 521.31 418.33C521.31 418.33 480.03 382.1 464.24 384.33C464.24 384.33 453.56 343.7 454.45 332.72C456.23 332.13 467.5 325.61 476.7 324.72C476.67 324.74 503.66 379.91 509.3 387.32Z" fill="#0071F2"/>
<g opacity="0.2">
<path d="M547.41 399.32L546.53 399.05C550.02 387.68 549.77 364.72 549.77 364.49C549.17 356.13 556.63 346.49 556.95 346.1L557.68 346.67C557.6 346.77 550.12 356.42 550.68 364.45C550.7 364.71 551 387.82 547.41 399.32Z" fill="black"/>
</g>
<g opacity="0.2">
<path d="M574.58 377.54L574.27 377.31C564.41 369.84 564.87 339.94 564.9 338.67H565.82C565.82 338.97 565.35 368.73 574.54 376.32C577.17 374 595.54 357.95 602.54 354.32C603.746 353.724 604.914 353.056 606.04 352.32C611.79 348.4 624.87 338.15 622.13 327.73L623.02 327.5C625.91 338.5 612.47 349.05 606.56 353.08C605.406 353.856 604.204 354.557 602.96 355.18C595.59 358.96 575.04 377.11 574.83 377.3L574.58 377.54Z" fill="black"/>
</g>
<path d="M443 311.24C449.121 316.873 453.538 324.111 455.75 332.13C455.75 332.13 467.43 326.47 474.2 325.13C474.2 325.13 469.6 321.13 469.89 319.13C470.549 313.489 470.72 307.801 470.4 302.13C470.223 300.102 469.592 298.141 468.554 296.39C467.515 294.64 466.095 293.146 464.4 292.02C459.55 288.76 451.62 283.02 447.97 278.41C447.782 278.18 447.546 277.995 447.278 277.867C447.01 277.74 446.717 277.674 446.42 277.674C446.123 277.674 445.83 277.74 445.562 277.867C445.294 277.995 445.058 278.18 444.87 278.41C444.682 278.623 444.451 278.793 444.193 278.91C443.934 279.027 443.654 279.087 443.37 279.087C443.086 279.087 442.806 279.027 442.547 278.91C442.288 278.793 442.058 278.623 441.87 278.41L433.51 268.78C433.228 268.455 432.877 268.198 432.483 268.026C432.089 267.855 431.661 267.774 431.232 267.789C430.802 267.804 430.381 267.916 430 268.115C429.619 268.314 429.288 268.596 429.03 268.94C428.642 269.456 428.439 270.088 428.454 270.734C428.468 271.379 428.699 272.002 429.11 272.5L438.46 283.87L436.56 286C434.215 288.641 432.436 291.735 431.336 295.091C430.235 298.447 429.835 301.993 430.16 305.51L430.51 309.28C430.52 309.385 430.551 309.487 430.602 309.58C430.652 309.673 430.722 309.754 430.805 309.818C430.888 309.883 430.984 309.93 431.087 309.956C431.189 309.982 431.296 309.987 431.4 309.97L433.55 309.61C433.706 309.584 433.85 309.51 433.963 309.399C434.076 309.288 434.151 309.146 434.18 308.99C434.209 308.81 434.302 308.646 434.441 308.527C434.58 308.409 434.757 308.344 434.94 308.344C435.123 308.344 435.3 308.409 435.439 308.527C435.578 308.646 435.671 308.81 435.7 308.99V309.24C435.727 309.405 435.807 309.557 435.928 309.672C436.049 309.788 436.204 309.861 436.37 309.88L437.64 310.02C437.846 310.042 438.052 309.982 438.213 309.853C438.374 309.724 438.477 309.535 438.5 309.33L439.29 301.33L440.16 306.2C440.526 308.147 441.524 309.918 443 311.24Z" fill="#F9B499"/>
<path d="M600.57 493.46C600.57 493.46 572.33 519.39 532.12 500.9C532.12 500.9 482.66 467.62 465.12 434.34L407.88 481.48C407.88 481.48 380.53 463.92 373.13 454.67C373.13 454.67 448.13 386.14 464.23 384.35C464.23 384.35 476.67 376.46 531.23 427.35L533.95 451.69C533.95 451.69 548.37 474.47 600.57 493.46Z" fill="black" fill-opacity="0.95"/>
<path d="M386.5 579.23C386.5 579.23 379.97 587.83 401.33 590.8C401.33 590.8 419.72 595.25 434.25 593.47C434.25 593.47 428.92 586.05 386.5 579.23Z" fill="#2F2E41"/>
<path d="M393 580.71C393 580.71 390.34 617.79 348.22 626.1C348.22 626.1 345.55 634.4 348.22 637.1C348.22 637.1 374.61 647.78 401.9 629.39L407.84 628.8V631H419.5H430.5C430.5 631 433.08 615.71 429.22 606.82C429.22 606.82 424.48 595.24 426.55 589.02C426.54 589 410.23 582.49 393 580.71Z" fill="#0071F2"/>
<path d="M618.84 404.49V380.25C618.84 379.27 619.033 378.3 619.408 377.395C619.783 376.49 620.332 375.668 621.025 374.975C621.718 374.282 622.54 373.733 623.445 373.358C624.35 372.983 625.32 372.79 626.3 372.79C626.3 372.79 626.92 384.85 628.69 392.54C628.69 392.54 631.44 401.18 624.43 403.74L618.84 404.49Z" fill="#CCCCCC"/>
<path d="M633.88 524.52H629.48V458.33L633.88 457.51V524.52Z" fill="#CCCCCC"/>
<path opacity="0.2" d="M633.88 524.52H629.48V458.33L633.88 457.51V524.52Z" fill="black"/>
<path d="M499.59 503.18H619.44C622.684 503.18 625.794 504.469 628.088 506.762C630.382 509.056 631.67 512.166 631.67 515.41V524.52H481.3V521.52C481.3 516.667 483.228 512.012 486.66 508.58C490.092 505.148 494.747 503.22 499.6 503.22L499.59 503.18Z" fill="#CCCCCC"/>
<path d="M500.4 526.73H491.5V672.07H500.4V526.73Z" fill="#CCCCCC"/>
<path d="M622.31 526.73H613.41V672.07H622.31V526.73Z" fill="#CCCCCC"/>
<path d="M465.21 430.03H459.82V672.07H465.21V430.03Z" fill="#CCCCCC"/>
<path opacity="0.2" d="M465.21 430.03H459.82V672.07H465.21V430.03Z" fill="black"/>
<path d="M317.14 431.81H311.75V672.07H317.14V431.81Z" fill="#CCCCCC"/>
<path opacity="0.2" d="M317.14 431.81H311.75V672.07H317.14V431.81Z" fill="black"/>
<path d="M336.67 431.81H331.28V625.8H336.67V431.81Z" fill="#CCCCCC"/>
<path opacity="0.2" d="M336.67 431.81H331.28V625.8H336.67V431.81Z" fill="black"/>
<path d="M418.24 379.02L466.88 426.97H307.01L327.77 379.02H418.24Z" fill="#CCCCCC"/>
<path opacity="0.2" d="M418.24 379.02L466.88 426.97H307.01L327.77 379.02H418.24Z" fill="black"/>
<path d="M254.8 280.08L280.61 382H414.68L413.49 385.86H277.34L251.24 284.7C251.096 284.155 251.079 283.584 251.191 283.032C251.302 282.48 251.539 281.96 251.883 281.514C252.227 281.067 252.669 280.706 253.175 280.457C253.68 280.209 254.236 280.08 254.8 280.08Z" fill="black"/>
<path d="M334 385.84C334 385.84 330.47 403.34 337.88 404.84H363.1C363.1 404.84 360.72 404.25 361.02 399.21L361.42 385.86L334 385.84Z" fill="black"/>
<path d="M339 409.67L337.81 404.82C337.81 404.82 331 403 334 385.84C331.341 390.654 330.416 396.235 331.38 401.65C331.706 403.577 332.595 405.365 333.935 406.789C335.275 408.212 337.006 409.208 338.91 409.65L339 409.67Z" fill="#BCBEC0"/>
<path d="M382 409.67H339L337.81 404.82H377.07C377.714 404.809 378.353 404.927 378.951 405.166C379.548 405.405 380.092 405.761 380.551 406.212C381.01 406.663 381.375 407.202 381.623 407.795C381.872 408.389 382 409.026 382 409.67Z" fill="#BCBEC0"/>
<path d="M602.73 312.28C602.73 312.28 602.73 314.75 602.94 317.43C603.208 320.81 604.643 323.992 607 326.43L610.24 329.78C602.264 339.24 592.808 347.345 582.24 353.78C582.24 353.78 575.13 356.16 574.53 349.93L572.16 338.36C572.16 338.36 577.23 341.85 579.22 327.41C579.22 327.41 593.12 328.26 598.13 305.8C598.15 305.82 600.06 310.5 602.73 312.28Z" fill="#F9B499"/>
<path d="M578.72 330.51L579.38 326.06L598.15 305.82C598.15 305.82 601 326.85 578.72 330.51Z" fill="#F4A68E"/>
<path d="M579.38 327.6C590.155 327.6 598.89 314.173 598.89 297.61C598.89 281.047 590.155 267.62 579.38 267.62C568.605 267.62 559.87 281.047 559.87 297.61C559.87 314.173 568.605 327.6 579.38 327.6Z" fill="#F9B499"/>
<path d="M559.88 297.61C557.085 293.921 555.856 289.279 556.46 284.69C556.46 284.69 546.37 277.28 549.34 260.37C549.34 260.37 553.79 265.12 557.34 264.82C555.507 261.63 553.208 258.732 550.52 256.22C550.52 256.22 568.31 246.13 587 259.78C587 259.78 581.37 251.78 572.47 247.91C572.47 247.91 586.91 246.46 595.01 267.62C595.01 267.62 596.32 269.27 600.56 268.97C600.56 268.97 608.95 268.08 610.14 274.31C610.14 274.31 611.62 295.67 602.72 312.31C600.491 310.752 598.873 308.469 598.14 305.85C599.119 300.564 599.143 295.145 598.21 289.85C598.21 289.85 593.97 283.12 586.41 280.75C586.41 280.75 579.73 278.38 578.1 274.07C578.1 274.07 567.03 281 562.78 281.91C562.79 281.85 559.17 289.61 559.88 297.61Z" fill="#030712"/>
<path d="M605.413 297.723C605.922 292.64 604.156 288.301 601.469 288.031C598.782 287.762 596.191 291.665 595.681 296.748C595.172 301.831 596.938 306.17 599.625 306.439C602.312 306.708 604.904 302.806 605.413 297.723Z" fill="#F9B499"/>
<path d="M551.41 427.89C551.41 427.89 517.01 424.99 515.82 434.78C515.82 434.78 510.48 451.09 521.46 457.03C521.46 457.03 532.73 467.11 538.07 466.22C538.07 466.22 540.63 465.22 531.49 456.74C531.037 456.323 530.726 455.773 530.603 455.17C530.48 454.566 530.55 453.939 530.804 453.378C531.057 452.816 531.481 452.349 532.016 452.043C532.55 451.736 533.167 451.606 533.78 451.67H533.92C533.92 451.67 547.06 451.79 551.42 446.79L556.85 445.55C556.85 445.55 552.78 435.86 551.41 427.89Z" fill="#F9B499"/>
<g opacity="0.2">
<path d="M562.16 450.75C561.675 450.755 561.191 450.725 560.71 450.66H560.62L560.54 450.61C554.98 446.98 551.12 426.61 550.96 425.69L550.9 425.35L551.21 425.19C555.732 423.09 560.577 421.771 565.54 421.29C567.05 420.61 585.37 412.4 595.54 411.51C596.64 411.07 611.63 405.22 620.19 403.79H620.33C620.33 403.79 624.2 404.3 626.6 401.89C628.36 400.13 628.96 397.25 628.41 393.34C628.14 392.05 621.87 361 629.56 351.64C630.108 351.012 630.538 350.291 630.83 349.51C631.63 347.13 631.75 342.3 623.56 336.71L624.08 335.94C632.77 341.88 632.59 347.17 631.71 349.8C631.384 350.692 630.896 351.516 630.27 352.23C622.87 361.23 629.27 392.86 629.27 393.23C629.87 397.48 629.18 400.62 627.2 402.6C624.63 405.17 620.82 404.84 620.2 404.76C611.44 406.24 595.9 412.38 595.74 412.44H595.61C585.43 413.31 566 422.1 565.81 422.19H565.73H565.65C560.896 422.642 556.25 423.879 551.9 425.85C552.43 428.58 556.1 446.44 560.9 449.76C564.83 450.032 568.729 448.897 571.9 446.56L572.03 446.47H572.19C572.6 446.47 614.19 448.73 639.63 439.38L639.95 440.25C615.15 449.37 575.16 447.54 572.29 447.4C569.329 449.515 565.798 450.683 562.16 450.75Z" fill="black"/>
</g>
<path d="M618.84 444.87V457.51C618.839 458.498 619.032 459.476 619.41 460.389C619.787 461.302 620.341 462.132 621.04 462.83C621.738 463.529 622.568 464.083 623.481 464.46C624.394 464.838 625.372 465.031 626.36 465.03C628.354 465.03 630.267 464.238 631.677 462.827C633.088 461.417 633.88 459.504 633.88 457.51V441.73C628.945 443.123 623.92 444.172 618.84 444.87Z" fill="#CCCCCC"/>
<path d="M637.23 524.52H478.74V533.63H637.23V524.52Z" fill="#CCCCCC"/>
<path opacity="0.2" d="M637.23 524.52H478.74V533.63H637.23V524.52Z" fill="black"/>
<path d="M375.74 457.53C365.149 465.952 352.556 471.485 339.19 473.59C339.19 473.59 323.8 473.25 325.85 483.84C325.967 486.404 326.373 488.947 327.06 491.42C327.399 492.463 328.059 493.371 328.947 494.014C329.835 494.658 330.904 495.003 332 495H364.48C364.48 495 374.05 496.16 379.18 488.3L382.26 487.62L383.97 492.74L401.48 490.3C401.887 488.7 402.263 486.993 402.61 485.18C403.04 482.87 403.34 480.69 403.54 478.66C400.31 476.45 397 474.13 375.74 457.53Z" fill="#0071F2"/>
<path d="M466.89 426.97H307.01V433.2H466.89V426.97Z" fill="#CCCCCC"/>
<path d="M280.61 381.98L254.8 280.08H386.45L414.68 381.98H280.61Z" fill="#2F2E41"/>
<path opacity="0.2" d="M280.61 381.98L254.8 280.08H386.45L414.68 381.98H280.61Z" fill="black"/>
<path d="M258.06 283.21L282.39 376.94H413.49L386.94 283.21H258.06Z" fill="white" fill-opacity="0.9"/>
<path d="M414.6 23.28H395.61C391.385 23.28 387.96 26.705 387.96 30.93V30.94C387.96 35.165 391.385 38.59 395.61 38.59H414.6C418.825 38.59 422.25 35.165 422.25 30.94V30.93C422.25 26.705 418.825 23.28 414.6 23.28Z" fill="#0EA5E9"/>
<path d="M458.85 23.28H439.86C435.635 23.28 432.21 26.705 432.21 30.93V30.94C432.21 35.165 435.635 38.59 439.86 38.59H458.85C463.075 38.59 466.5 35.165 466.5 30.94V30.93C466.5 26.705 463.075 23.28 458.85 23.28Z" fill="#FACC15"/>
<path d="M503.54 23.28H484.55C480.325 23.28 476.9 26.705 476.9 30.93V30.94C476.9 35.165 480.325 38.59 484.55 38.59H503.54C507.765 38.59 511.19 35.165 511.19 30.94V30.93C511.19 26.705 507.765 23.28 503.54 23.28Z" fill="#DC2626"/>
<line x1="276" y1="97.5" x2="470" y2="97.5" stroke="black"/>
<line x1="276" y1="109.5" x2="470" y2="109.5" stroke="black"/>
<line x1="276" y1="121.5" x2="470" y2="121.5" stroke="black"/>
<line x1="276" y1="133.5" x2="470" y2="133.5" stroke="black"/>
<line x1="276" y1="145.5" x2="470" y2="145.5" stroke="black"/>
<line x1="276" y1="157.5" x2="470" y2="157.5" stroke="black"/>
<line x1="276" y1="169.5" x2="470" y2="169.5" stroke="black"/>
<line x1="122" y1="188.5" x2="316" y2="188.5" stroke="black"/>
<line x1="122" y1="200.5" x2="316" y2="200.5" stroke="black"/>
<line x1="122" y1="212.5" x2="316" y2="212.5" stroke="black"/>
<line x1="122" y1="224.5" x2="316" y2="224.5" stroke="black"/>
<line x1="122" y1="236.5" x2="316" y2="236.5" stroke="black"/>
<line x1="122" y1="248.5" x2="316" y2="248.5" stroke="black"/>
<line x1="122" y1="260.5" x2="316" y2="260.5" stroke="black"/>
<g clip-path="url(#clip1_410_74)">
<path d="M343.596 306.427C343.243 306.336 342.887 306.256 342.531 306.185C342.557 305.913 342.58 305.646 342.597 305.383C342.876 301.071 341.971 297.73 340.11 296.813C338.326 295.935 335.746 297.372 333.321 300.369C333.083 300.665 332.851 300.968 332.626 301.277C332.431 301.112 332.235 300.95 332.035 300.793C328.829 298.269 325.811 297.4 324.215 298.726C322.685 299.997 322.57 303.251 323.736 307.17C323.852 307.558 323.977 307.943 324.11 308.324C323.718 308.502 323.341 308.686 322.983 308.878C319.772 310.59 317.866 312.906 318.117 315.047C318.376 317.259 320.944 319.206 324.606 320.14C324.903 320.215 325.201 320.282 325.501 320.341C325.457 320.774 325.423 321.209 325.401 321.644C325.197 325.653 326.083 328.713 327.86 329.589C329.696 330.494 332.427 329.022 334.894 325.958C335.094 325.709 335.288 325.454 335.477 325.194C335.791 325.464 336.112 325.724 336.439 325.973C339.447 328.266 342.238 329.007 343.762 327.741C345.337 326.433 345.498 323.015 344.3 319.02C344.205 318.707 344.105 318.396 343.997 318.088C344.19 317.998 344.38 317.906 344.564 317.811C348.048 316.029 350.162 313.559 349.899 311.318C349.647 309.169 347.184 307.351 343.596 306.427ZM343.967 316.415C343.801 316.5 343.63 316.583 343.455 316.665C342.885 315.282 342.164 313.826 341.315 312.333C341.769 310.725 342.115 309.163 342.339 307.697C342.677 307.764 343.006 307.838 343.323 307.92C346.398 308.712 348.389 310.182 348.541 311.477C348.703 312.857 346.976 314.875 343.967 316.415ZM343.003 319.472C343.532 321.238 343.769 322.864 343.708 324.164C343.653 325.332 343.362 326.14 342.927 326.501C342.002 327.27 339.761 326.675 337.189 324.714C336.885 324.482 336.586 324.24 336.294 323.99C337.06 322.785 337.805 321.401 338.512 319.879C340.031 319.546 341.453 319.125 342.729 318.629C342.826 318.908 342.917 319.189 343.003 319.472ZM330.602 327.833C329.669 328.336 328.89 328.439 328.384 328.189C327.305 327.658 326.594 325.2 326.768 321.772C326.789 321.367 326.82 320.963 326.861 320.56C328.201 320.731 329.669 320.794 331.226 320.754C332.268 322.04 333.339 323.209 334.398 324.218C334.226 324.455 334.049 324.688 333.866 324.915C332.775 326.27 331.64 327.274 330.602 327.833ZM324.876 318.646C323.257 318.233 321.886 317.61 320.91 316.87C320.033 316.205 319.546 315.499 319.475 314.888C319.322 313.589 320.853 311.729 323.599 310.265C323.932 310.087 324.282 309.915 324.647 309.75C325.215 311.156 325.915 312.613 326.725 314.075C326.27 315.708 325.922 317.313 325.693 318.83C325.419 318.776 325.147 318.715 324.876 318.646ZM325.035 306.72C324.035 303.363 324.128 300.731 325.051 299.965C326.033 299.149 328.499 299.859 331.267 302.039C331.448 302.181 331.626 302.327 331.802 302.477C331.009 303.699 330.246 305.073 329.536 306.557C328.06 306.888 326.658 307.305 325.382 307.794C325.258 307.44 325.142 307.081 325.035 306.72ZM339.19 308.913C338.808 308.347 338.416 307.789 338.014 307.242C339.045 307.267 340.039 307.344 340.979 307.47C340.82 308.488 340.6 309.559 340.322 310.663C339.955 310.071 339.577 309.488 339.19 308.913ZM332.882 303.455C333.597 304.143 334.324 304.92 335.05 305.77C333.79 305.851 332.537 305.998 331.293 306.21C331.803 305.224 332.336 304.3 332.882 303.455ZM327.974 310.239C327.733 310.883 327.506 311.534 327.293 312.19C326.774 311.184 326.315 310.188 325.921 309.221C326.801 308.887 327.746 308.587 328.737 308.327C328.469 308.957 328.215 309.595 327.974 310.239ZM330.046 319.231C328.99 319.223 327.988 319.162 327.055 319.046C327.216 317.996 327.438 316.898 327.716 315.775C328.076 316.365 328.449 316.945 328.833 317.516C329.229 318.103 329.634 318.675 330.046 319.231ZM335.214 323.01C334.479 322.306 333.736 321.519 333.001 320.665C333.612 320.62 334.234 320.561 334.865 320.487C335.513 320.411 336.151 320.32 336.778 320.214C336.27 321.231 335.746 322.168 335.214 323.01ZM340.749 314.19C341.301 315.228 341.783 316.237 342.185 317.204C341.291 317.548 340.318 317.855 339.287 318.119C339.552 317.482 339.807 316.839 340.049 316.189C340.296 315.529 340.529 314.863 340.749 314.19ZM338.784 315.566C338.412 316.561 338.012 317.542 337.583 318.507C336.624 318.697 335.657 318.849 334.686 318.963C333.697 319.079 332.731 319.157 331.797 319.198C331.142 318.363 330.516 317.501 329.919 316.614C329.324 315.732 328.759 314.826 328.225 313.898C328.529 312.871 328.867 311.859 329.24 310.863L329.24 310.863C329.612 309.867 330.018 308.887 330.457 307.928C331.393 307.736 332.357 307.581 333.337 307.466C334.321 307.35 335.296 307.279 336.251 307.249C336.895 308.08 337.513 308.936 338.104 309.814C338.699 310.695 339.268 311.596 339.81 312.517C339.501 313.547 339.158 314.564 338.784 315.566ZM339.587 298.214C340.732 298.778 341.472 301.508 341.231 305.231C341.216 305.469 341.195 305.711 341.171 305.958C339.813 305.771 338.351 305.684 336.833 305.702C335.796 304.409 334.742 303.245 333.705 302.253C333.913 301.967 334.127 301.688 334.348 301.414C336.425 298.846 338.512 297.684 339.587 298.214ZM333.634 309.996C335.201 309.812 336.639 311.09 336.846 312.85C337.052 314.61 335.949 316.185 334.382 316.369C332.814 316.553 331.376 315.276 331.17 313.516C330.963 311.756 332.067 310.18 333.634 309.996Z" fill="#00D8FF"/>
</g>
<g clip-path="url(#clip2_410_74)">
<path d="M346.552 371.183C346.137 371.246 345.7 371.198 345.304 371.043L341.151 369.361C340.534 369.126 340.795 368.972 340.972 368.883C341.692 368.502 341.838 368.424 342.578 367.838C342.657 367.776 342.771 367.777 342.866 367.82L346.057 369.115C346.171 369.161 346.319 369.139 346.409 369.062L356.831 360.754C356.927 360.677 356.976 360.543 356.958 360.419L354.973 347.243C354.953 347.113 354.867 347.006 354.746 346.955L342.346 342.092C342.231 342.046 342.089 342.067 341.993 342.145L331.583 350.451C331.481 350.529 331.432 350.663 331.452 350.793L333.436 363.963C333.454 364.087 333.541 364.2 333.661 364.239L337.06 365.572C338.887 366.163 339.775 365.012 339.623 364.004L337.664 351.001C337.636 350.816 337.763 350.651 337.949 350.623L339.395 350.405C339.574 350.378 339.75 350.497 339.778 350.682L341.738 363.692C342.079 365.954 341.038 367.438 338.894 367.761C338.232 367.861 337.713 367.939 336.159 367.44L332.908 366.166C332.102 365.852 331.525 365.123 331.395 364.264L329.411 351.094C329.283 350.241 329.619 349.369 330.296 348.831L340.706 340.525C341.368 340.008 342.326 339.863 343.104 340.163L355.513 345.038C356.319 345.353 356.896 346.081 357.025 346.94L359.01 360.11C359.138 360.963 358.801 361.829 358.124 362.374L347.702 370.681C347.369 370.947 346.972 371.12 346.552 371.183ZM353.81 356.81C353.439 354.344 351.671 353.941 348.097 354.005C344.479 354.07 344.084 353.883 343.959 353.055C343.856 352.369 344.021 351.408 346.648 351.013C348.99 350.66 349.932 351.036 350.528 352.564C350.581 352.708 350.734 352.799 350.889 352.776L352.372 352.552C352.465 352.538 352.546 352.488 352.597 352.411C352.649 352.333 352.666 352.236 352.646 352.144C352.006 349.453 350.005 348.459 346.346 349.01C343.089 349.501 341.355 351.165 341.702 353.471C342.079 355.967 344.117 356.368 347.285 356.207C351.079 356.008 351.452 356.515 351.563 357.25C351.755 358.523 350.811 359.222 348.407 359.584C345.384 360.039 344.609 359.379 344.16 357.91C344.111 357.753 343.957 357.656 343.79 357.682L342.313 357.904C342.128 357.932 342.008 358.102 342.035 358.281C342.325 360.203 343.715 362.339 348.714 361.585C352.323 361.035 354.184 359.295 353.81 356.81Z" fill="#68A063"/>
</g>
<defs>
<clipPath id="clip0_410_74">
<rect width="5.05882" height="4.77074" fill="white" transform="translate(380.559 56.578)"/>
</clipPath>
<clipPath id="clip1_410_74">
<rect width="32" height="32" fill="white" transform="translate(316.258 299.203) rotate(-6.69263)"/>
</clipPath>
<clipPath id="clip2_410_74">
<rect width="32" height="32" fill="white" transform="translate(326 342.171) rotate(-8.56761)"/>
</clipPath>
</defs>
</svg>
